<svg xmlns="http://www.w3.org/2000/svg" viewBox="0 0 256 257" width="64" height="64" aria-hidden="true">
  <defs>
    <linearGradient id="g1" x1="-.828%" y1="7.652%" x2="57.636%" y2="78.411%">
      <stop stop-color="#41D1FF" offset="0%"/>
      <stop stop-color="#BD34FE" offset="100%"/>
    </linearGradient>
    <linearGradient id="g2" x1="43.376%" y1="2.242%" x2="50.316%" y2="89.03%">
      <stop stop-color="#FFEA83" offset="0%"/>
      <stop stop-color="#FFDD35" offset="8.333%"/>
      <stop stop-color="#FFA800" offset="100%"/>
    </linearGradient>
  </defs>
  <path fill="url(#g1)" d="M255.153 37.938L134.897 252.976c-2.483 4.44-8.86 4.466-11.382.048L.875 37.958c-2.746-4.74 1.371-10.47 6.748-9.544l120.385 20.724a6.5 6.5 0 002.253-.002l117.78-20.59c5.355-.936 9.5 4.742 6.787 9.488z"/>
  <path fill="url(#g2)" d="M185.432 0l-94.66 17.648a3.25 3.25 0 00-2.627 3.188v120.4a3.25 3.25 0 003.95 3.183l23.79-5.088c2.03-.435 3.978 1.128 3.978 3.206v29.744a3.25 3.25 0 003.95 3.184l15.066-3.26a3.25 3.25 0 002.574-3.182V112.61a3.25 3.25 0 013.95-3.183l23.343 5.026a3.25 3.25 0 003.95-3.183V3.19A3.25 3.25 0 00185.432 0z"/>
</svg>

